<svg width="118" height="14" viewBox="0 0 118 14" fill="none" xmlns="http://www.w3.org/2000/svg">
<g clip-path="url(#clip0_1423_801)">
<path d="M0.0238066 2.63574C0.234201 2.63574 0.404759 2.8063 0.404759 3.01669V3.20717H1.50149C1.78075 2.85898 2.2094 2.63575 2.69047 2.63574H12.9762C13.3678 2.63574 13.7249 2.78359 13.9948 3.02637C14.1617 3.02061 14.3302 3.0167 14.5 3.01669C18.4975 3.01669 21.7381 4.63701 21.7381 6.63574C21.7381 8.63449 18.4975 10.2548 14.5 10.2548C14.3302 10.2548 14.1617 10.2505 13.9948 10.2447C13.7248 10.4876 13.3679 10.6357 12.9762 10.6357H2.69047C2.2094 10.6357 1.78075 10.4125 1.50149 10.0643H0.404759V10.2548C0.404759 10.4652 0.234201 10.6357 0.0238066 10.6357H-0.357146C-0.56754 10.6357 -0.738098 10.4652 -0.738098 10.2548V3.01669C-0.738098 2.8063 -0.56754 2.63574 -0.357146 2.63574H0.0238066Z" fill="#17181A"/>
</g>
<path d="M117.741 11.1709V13.043L116.555 13.0869C115.371 13.1279 114.562 12.9229 114.129 12.4717C113.848 12.1846 113.707 11.7422 113.707 11.1445V5.24707H112.371V3.46289H113.707V0.791016H116.186V3.46289H117.741V5.24707H116.186V10.3096C116.186 10.7021 116.235 10.9482 116.335 11.0479C116.435 11.1416 116.739 11.1885 117.249 11.1885C117.325 11.1885 117.404 11.1885 117.486 11.1885C117.574 11.1826 117.659 11.1768 117.741 11.1709Z" fill="#17181A"/>
<path d="M111.786 10.1426C111.722 10.7109 111.426 11.2881 110.898 11.874C110.078 12.8057 108.93 13.2715 107.453 13.2715C106.234 13.2715 105.159 12.8789 104.228 12.0938C103.296 11.3086 102.83 10.0312 102.83 8.26172C102.83 6.60352 103.249 5.33203 104.087 4.44727C104.931 3.5625 106.023 3.12012 107.365 3.12012C108.162 3.12012 108.88 3.26953 109.519 3.56836C110.157 3.86719 110.685 4.33887 111.101 4.9834C111.476 5.55176 111.719 6.21094 111.83 6.96094C111.895 7.40039 111.921 8.0332 111.909 8.85938H105.353C105.388 9.82031 105.689 10.4941 106.258 10.8809C106.604 11.1211 107.02 11.2412 107.506 11.2412C108.021 11.2412 108.44 11.0947 108.763 10.8018C108.938 10.6436 109.094 10.4238 109.229 10.1426H111.786ZM109.308 7.20703C109.267 6.54492 109.064 6.04395 108.701 5.7041C108.344 5.3584 107.898 5.18555 107.365 5.18555C106.785 5.18555 106.334 5.36719 106.012 5.73047C105.695 6.09375 105.496 6.58594 105.414 7.20703H109.308Z" fill="#17181A"/>
<path d="M98.8789 3.37305H101.384V12.9551H98.8789V3.37305Z" fill="#17181A"/>
<path d="M94.1191 3.37305H96.624V12.9551H94.1191V3.37305Z" fill="#17181A"/>
<path d="M89.4561 11.6016C89.4326 11.6309 89.374 11.7188 89.2803 11.8652C89.1865 12.0117 89.0752 12.1406 88.9463 12.252C88.5537 12.6035 88.1729 12.8438 87.8037 12.9727C87.4404 13.1016 87.0127 13.166 86.5205 13.166C85.1025 13.166 84.1475 12.6562 83.6553 11.6367C83.3799 11.0742 83.2422 10.2451 83.2422 9.14941V3.375H85.8086V9.14941C85.8086 9.69434 85.873 10.1045 86.002 10.3799C86.2305 10.8662 86.6787 11.1094 87.3467 11.1094C88.2021 11.1094 88.7881 10.7637 89.1045 10.0723C89.2686 9.69727 89.3506 9.20215 89.3506 8.58691V3.375H91.8906V12.9551H89.4561V11.6016Z" fill="#17181A"/>
<path d="M76.6719 12.9551H70.8008V0H77.0938C78.6816 0.0234375 79.8066 0.483398 80.4688 1.37988C80.8672 1.93066 81.0664 2.58984 81.0664 3.35742C81.0664 4.14844 80.8672 4.78418 80.4688 5.26465C80.2461 5.53418 79.918 5.78027 79.4844 6.00293C80.1465 6.24316 80.6445 6.62402 80.9785 7.14551C81.3184 7.66699 81.4883 8.2998 81.4883 9.04395C81.4883 9.81152 81.2949 10.5 80.9082 11.1094C80.6621 11.5137 80.3545 11.8535 79.9854 12.1289C79.5693 12.4453 79.0771 12.6621 78.5088 12.7793C77.9463 12.8965 77.334 12.9551 76.6719 12.9551ZM76.6104 7.25098H73.3848V10.7051H76.5664C77.1348 10.7051 77.5771 10.6289 77.8936 10.4766C78.4678 10.1953 78.7549 9.65625 78.7549 8.85938C78.7549 8.18555 78.4766 7.72266 77.9199 7.4707C77.6094 7.33008 77.1729 7.25684 76.6104 7.25098ZM77.9551 4.78125C78.3066 4.57031 78.4824 4.19238 78.4824 3.64746C78.4824 3.04395 78.248 2.64551 77.7793 2.45215C77.375 2.31738 76.8594 2.25 76.2324 2.25H73.3848V5.10645H76.5664C77.1348 5.10645 77.5977 4.99805 77.9551 4.78125Z" fill="#17181A"/>
<path d="M64.2256 10.1426C64.1611 10.7109 63.8652 11.2881 63.3379 11.874C62.5176 12.8057 61.3691 13.2715 59.8926 13.2715C58.6738 13.2715 57.5986 12.8789 56.667 12.0938C55.7354 11.3086 55.2695 10.0312 55.2695 8.26172C55.2695 6.60352 55.6885 5.33203 56.5264 4.44727C57.3701 3.5625 58.4629 3.12012 59.8047 3.12012C60.6016 3.12012 61.3193 3.26953 61.958 3.56836C62.5967 3.86719 63.124 4.33887 63.54 4.9834C63.915 5.55176 64.1582 6.21094 64.2695 6.96094C64.334 7.40039 64.3604 8.0332 64.3486 8.85938H57.792C57.8271 9.82031 58.1289 10.4941 58.6973 10.8809C59.043 11.1211 59.459 11.2412 59.9453 11.2412C60.4609 11.2412 60.8799 11.0947 61.2021 10.8018C61.3779 10.6436 61.5332 10.4238 61.668 10.1426H64.2256ZM61.7471 7.20703C61.7061 6.54492 61.5039 6.04395 61.1406 5.7041C60.7832 5.3584 60.3379 5.18555 59.8047 5.18555C59.2246 5.18555 58.7734 5.36719 58.4512 5.73047C58.1348 6.09375 57.9355 6.58594 57.8535 7.20703H61.7471Z" fill="#17181A"/>
<path d="M51.415 11.6016C51.3916 11.6309 51.333 11.7188 51.2393 11.8652C51.1455 12.0117 51.0342 12.1406 50.9053 12.252C50.5127 12.6035 50.1318 12.8438 49.7627 12.9727C49.3994 13.1016 48.9717 13.166 48.4795 13.166C47.0615 13.166 46.1064 12.6562 45.6143 11.6367C45.3389 11.0742 45.2012 10.2451 45.2012 9.14941V3.375H47.7676V9.14941C47.7676 9.69434 47.832 10.1045 47.9609 10.3799C48.1895 10.8662 48.6377 11.1094 49.3057 11.1094C50.1611 11.1094 50.7471 10.7637 51.0635 10.0723C51.2275 9.69727 51.3096 9.20215 51.3096 8.58691V3.375H53.8496V12.9551H51.415V11.6016Z" fill="#17181A"/>
<path d="M40.5645 3.37305H43.0693V12.9551H40.5645V3.37305Z" fill="#17181A"/>
<path d="M33.8711 12.9551H28V0H34.293C35.8809 0.0234375 37.0059 0.483398 37.668 1.37988C38.0664 1.93066 38.2656 2.58984 38.2656 3.35742C38.2656 4.14844 38.0664 4.78418 37.668 5.26465C37.4453 5.53418 37.1172 5.78027 36.6836 6.00293C37.3457 6.24316 37.8438 6.62402 38.1777 7.14551C38.5176 7.66699 38.6875 8.2998 38.6875 9.04395C38.6875 9.81152 38.4941 10.5 38.1074 11.1094C37.8613 11.5137 37.5537 11.8535 37.1846 12.1289C36.7686 12.4453 36.2764 12.6621 35.708 12.7793C35.1455 12.8965 34.5332 12.9551 33.8711 12.9551ZM33.8096 7.25098H30.584V10.7051H33.7656C34.334 10.7051 34.7764 10.6289 35.0928 10.4766C35.667 10.1953 35.9541 9.65625 35.9541 8.85938C35.9541 8.18555 35.6758 7.72266 35.1191 7.4707C34.8086 7.33008 34.3721 7.25684 33.8096 7.25098ZM35.1543 4.78125C35.5059 4.57031 35.6816 4.19238 35.6816 3.64746C35.6816 3.04395 35.4473 2.64551 34.9785 2.45215C34.5742 2.31738 34.0586 2.25 33.4316 2.25H30.584V5.10645H33.7656C34.334 5.10645 34.7969 4.99805 35.1543 4.78125Z" fill="#17181A"/>
<defs>
<clipPath id="clip0_1423_801">
<rect width="22" height="8" fill="white" transform="translate(0 2.63574)"/>
</clipPath>
</defs>
</svg>
